<svg width="32" height="32" viewBox="0 0 32 32" fill="none" xmlns="http://www.w3.org/2000/svg">
  <!-- Orange background -->
  <rect width="32" height="32" fill="#F97316" rx="6"/>

  <!-- Open book with bookmark -->
  <g transform="translate(4, 6)">
    <!-- Left page -->
    <path d="M 2 3 Q 2 2 3 2 L 10 2 Q 11 2 11 3 L 11 18 Q 11 19 10 19 L 3 19 Q 2 19 2 18 Z"
          fill="white" stroke="white" stroke-width="1.5"/>

    <!-- Right page -->
    <path d="M 13 3 Q 13 2 14 2 L 21 2 Q 22 2 22 3 L 22 18 Q 22 19 21 19 L 14 19 Q 13 19 13 18 Z"
          fill="white" stroke="white" stroke-width="1.5"/>

    <!-- Bookmark -->
    <path d="M 17 2 L 17 12 L 19 10 L 21 12 L 21 2 Z"
          fill="#F97316" stroke="white" stroke-width="0.5"/>

    <!-- Spine highlight -->
    <line x1="12" y1="3" x2="12" y2="19" stroke="white" stroke-width="1" opacity="0.5"/>

    <!-- Page lines on left page -->
    <line x1="4" y1="6" x2="9" y2="6" stroke="#F97316" stroke-width="0.5" opacity="0.4"/>
    <line x1="4" y1="8" x2="9" y2="8" stroke="#F97316" stroke-width="0.5" opacity="0.4"/>
    <line x1="4" y1="10" x2="9" y2="10" stroke="#F97316" stroke-width="0.5" opacity="0.4"/>

    <!-- Page lines on right page -->
    <line x1="15" y1="6" x2="20" y2="6" stroke="#F97316" stroke-width="0.5" opacity="0.4"/>
    <line x1="15" y1="8" x2="20" y2="8" stroke="#F97316" stroke-width="0.5" opacity="0.4"/>
  </g>
</svg>
